<svg xmlns="http://www.w3.org/2000/svg" version="1.1" xmlns:xlink="http://www.w3.org/1999/xlink" xmlns:svgjs="http://svgjs.com/svgjs" width="1440" height="560" preserveAspectRatio="none" viewBox="0 0 1440 560"><g mask="url(&quot;#SvgjsMask1174&quot;)" fill="none"><rect width="1440" height="560" x="0" y="0" fill="url(#SvgjsLinearGradient1175)"></rect><path d="M-87.15 376.47L-87.15 376.47" stroke="rgba(8, 202, 124, 1)" stroke-width="1.5"></path><path d="M-87.15 376.47L-102.7 527.48" stroke="rgba(8, 202, 124, 1)" stroke-width="1.5"></path><path d="M-87.15 376.47L71.18 366.55" stroke="rgba(8, 202, 124, 1)" stroke-width="1.5"></path><path d="M-87.15 376.47L61.35 546.13" stroke="rgba(8, 202, 124, 1)" stroke-width="1.5"></path><path d="M-87.15 376.47L76.93 648.67" stroke="rgba(8, 202, 124, 1)" stroke-width="1.5"></path><path d="M-87.15 376.47L233.69 348.47" stroke="rgba(8, 202, 124, 1)" stroke-width="1.5"></path><path d="M-87.15 376.47L258.74 541.73" stroke="rgba(8, 202, 124, 1)" stroke-width="1.5"></path><path d="M-102.7 527.48L-102.7 527.48" stroke="rgba(8, 202, 124, 1)" stroke-width="1.5"></path><path d="M-102.7 527.48L61.35 546.13" stroke="rgba(8, 202, 124, 1)" stroke-width="1.5"></path><path d="M-102.7 527.48L76.93 648.67" stroke="rgba(8, 202, 124, 1)" stroke-width="1.5"></path><path d="M-102.7 527.48L71.18 366.55" stroke="rgba(8, 202, 124, 1)" stroke-width="1.5"></path><path d="M-102.7 527.48L194.69 710.01" stroke="rgba(8, 202, 124, 1)" stroke-width="1.5"></path><path d="M71.18 366.55L71.18 366.55" stroke="rgba(8, 202, 124, 1)" stroke-width="1.5"></path><path d="M71.18 366.55L233.69 348.47" stroke="rgba(8, 202, 124, 1)" stroke-width="1.5"></path><path d="M71.18 366.55L61.35 546.13" stroke="rgba(8, 202, 124, 1)" stroke-width="1.5"></path><path d="M71.18 366.55L258.74 541.73" stroke="rgba(8, 202, 124, 1)" stroke-width="1.5"></path><path d="M61.35 546.13L61.35 546.13" stroke="rgba(8, 202, 124, 1)" stroke-width="1.5"></path><path d="M61.35 546.13L76.93 648.67" stroke="rgba(8, 202, 124, 1)" stroke-width="1.5"></path><path d="M76.93 648.67L76.93 648.67" stroke="rgba(8, 202, 124, 1)" stroke-width="1.5"></path><path d="M76.93 648.67L194.69 710.01" stroke="rgba(8, 202, 124, 1)" stroke-width="1.5"></path><path d="M76.93 648.67L258.74 541.73" stroke="rgba(8, 202, 124, 1)" stroke-width="1.5"></path><path d="M76.93 648.67L71.18 366.55" stroke="rgba(8, 202, 124, 1)" stroke-width="1.5"></path><path d="M233.69 348.47L233.69 348.47" stroke="rgba(8, 202, 124, 1)" stroke-width="1.5"></path><path d="M258.74 541.73L258.74 541.73" stroke="rgba(8, 202, 124, 1)" stroke-width="1.5"></path><path d="M258.74 541.73L412.34 504.84" stroke="rgba(8, 202, 124, 1)" stroke-width="1.5"></path><path d="M258.74 541.73L194.69 710.01" stroke="rgba(8, 202, 124, 1)" stroke-width="1.5"></path><path d="M258.74 541.73L233.69 348.47" stroke="rgba(8, 202, 124, 1)" stroke-width="1.5"></path><path d="M194.69 710.01L194.69 710.01" stroke="rgba(8, 202, 124, 1)" stroke-width="1.5"></path><path d="M194.69 710.01L404.2 695.47" stroke="rgba(8, 202, 124, 1)" stroke-width="1.5"></path><path d="M194.69 710.01L61.35 546.13" stroke="rgba(8, 202, 124, 1)" stroke-width="1.5"></path><path d="M194.69 710.01L412.34 504.84" stroke="rgba(8, 202, 124, 1)" stroke-width="1.5"></path><path d="M400.35 377.67L400.35 377.67" stroke="rgba(8, 202, 124, 1)" stroke-width="1.5"></path><path d="M400.35 377.67L412.34 504.84" stroke="rgba(8, 202, 124, 1)" stroke-width="1.5"></path><path d="M400.35 377.67L233.69 348.47" stroke="rgba(8, 202, 124, 1)" stroke-width="1.5"></path><path d="M400.35 377.67L539.89 498.02" stroke="rgba(8, 202, 124, 1)" stroke-width="1.5"></path><path d="M400.35 377.67L258.74 541.73" stroke="rgba(8, 202, 124, 1)" stroke-width="1.5"></path><path d="M412.34 504.84L412.34 504.84" stroke="rgba(8, 202, 124, 1)" stroke-width="1.5"></path><path d="M412.34 504.84L539.89 498.02" stroke="rgba(8, 202, 124, 1)" stroke-width="1.5"></path><path d="M412.34 504.84L404.2 695.47" stroke="rgba(8, 202, 124, 1)" stroke-width="1.5"></path><path d="M412.34 504.84L500.9 684.85" stroke="rgba(8, 202, 124, 1)" stroke-width="1.5"></path><path d="M412.34 504.84L233.69 348.47" stroke="rgba(8, 202, 124, 1)" stroke-width="1.5"></path><path d="M404.2 695.47L404.2 695.47" stroke="rgba(8, 202, 124, 1)" stroke-width="1.5"></path><path d="M404.2 695.47L500.9 684.85" stroke="rgba(8, 202, 124, 1)" stroke-width="1.5"></path><path d="M404.2 695.47L258.74 541.73" stroke="rgba(8, 202, 124, 1)" stroke-width="1.5"></path><path d="M404.2 695.47L539.89 498.02" stroke="rgba(8, 202, 124, 1)" stroke-width="1.5"></path><path d="M539.89 498.02L539.89 498.02" stroke="rgba(8, 202, 124, 1)" stroke-width="1.5"></path><path d="M539.89 498.02L500.9 684.85" stroke="rgba(8, 202, 124, 1)" stroke-width="1.5"></path><path d="M539.89 498.02L680.16 363.28" stroke="rgba(8, 202, 124, 1)" stroke-width="1.5"></path><path d="M500.9 684.85L500.9 684.85" stroke="rgba(8, 202, 124, 1)" stroke-width="1.5"></path><path d="M500.9 684.85L651.24 684.24" stroke="rgba(8, 202, 124, 1)" stroke-width="1.5"></path><path d="M500.9 684.85L258.74 541.73" stroke="rgba(8, 202, 124, 1)" stroke-width="1.5"></path><path d="M500.9 684.85L194.69 710.01" stroke="rgba(8, 202, 124, 1)" stroke-width="1.5"></path><path d="M680.16 363.28L680.16 363.28" stroke="rgba(8, 202, 124, 1)" stroke-width="1.5"></path><path d="M680.16 363.28L826.96 241.34" stroke="rgba(8, 202, 124, 1)" stroke-width="1.5"></path><path d="M651.24 684.24L651.24 684.24" stroke="rgba(8, 202, 124, 1)" stroke-width="1.5"></path><path d="M651.24 684.24L810.07 702.7" stroke="rgba(8, 202, 124, 1)" stroke-width="1.5"></path><path d="M651.24 684.24L539.89 498.02" stroke="rgba(8, 202, 124, 1)" stroke-width="1.5"></path><path d="M651.24 684.24L837.82 553.55" stroke="rgba(8, 202, 124, 1)" stroke-width="1.5"></path><path d="M826.96 241.34L826.96 241.34" stroke="rgba(8, 202, 124, 1)" stroke-width="1.5"></path><path d="M826.96 241.34L937.57 240" stroke="rgba(8, 202, 124, 1)" stroke-width="1.5"></path><path d="M837.82 553.55L837.82 553.55" stroke="rgba(8, 202, 124, 1)" stroke-width="1.5"></path><path d="M837.82 553.55L947.02 516.28" stroke="rgba(8, 202, 124, 1)" stroke-width="1.5"></path><path d="M810.07 702.7L810.07 702.7" stroke="rgba(8, 202, 124, 1)" stroke-width="1.5"></path><path d="M810.07 702.7L837.82 553.55" stroke="rgba(8, 202, 124, 1)" stroke-width="1.5"></path><path d="M810.07 702.7L975.55 675.77" stroke="rgba(8, 202, 124, 1)" stroke-width="1.5"></path><path d="M965.38 -99.99L965.38 -99.99" stroke="rgba(8, 202, 124, 1)" stroke-width="1.5"></path><path d="M965.38 -99.99L1145.86 -95.24" stroke="rgba(8, 202, 124, 1)" stroke-width="1.5"></path><path d="M965.38 -99.99L959.71 101.31" stroke="rgba(8, 202, 124, 1)" stroke-width="1.5"></path><path d="M965.38 -99.99L1143.63 57.17" stroke="rgba(8, 202, 124, 1)" stroke-width="1.5"></path><path d="M965.38 -99.99L1285.85 -43.86" stroke="rgba(8, 202, 124, 1)" stroke-width="1.5"></path><path d="M965.38 -99.99L1110.06 192.12" stroke="rgba(8, 202, 124, 1)" stroke-width="1.5"></path><path d="M959.71 101.31L959.71 101.31" stroke="rgba(8, 202, 124, 1)" stroke-width="1.5"></path><path d="M959.71 101.31L937.57 240" stroke="rgba(8, 202, 124, 1)" stroke-width="1.5"></path><path d="M959.71 101.31L1110.06 192.12" stroke="rgba(8, 202, 124, 1)" stroke-width="1.5"></path><path d="M959.71 101.31L1143.63 57.17" stroke="rgba(8, 202, 124, 1)" stroke-width="1.5"></path><path d="M959.71 101.31L826.96 241.34" stroke="rgba(8, 202, 124, 1)" stroke-width="1.5"></path><path d="M959.71 101.31L1145.86 -95.24" stroke="rgba(8, 202, 124, 1)" stroke-width="1.5"></path><path d="M937.57 240L937.57 240" stroke="rgba(8, 202, 124, 1)" stroke-width="1.5"></path><path d="M937.57 240L1110.06 192.12" stroke="rgba(8, 202, 124, 1)" stroke-width="1.5"></path><path d="M937.57 240L1142.32 365.09" stroke="rgba(8, 202, 124, 1)" stroke-width="1.5"></path><path d="M937.57 240L1143.63 57.17" stroke="rgba(8, 202, 124, 1)" stroke-width="1.5"></path><path d="M937.57 240L947.02 516.28" stroke="rgba(8, 202, 124, 1)" stroke-width="1.5"></path><path d="M947.02 516.28L947.02 516.28" stroke="rgba(8, 202, 124, 1)" stroke-width="1.5"></path><path d="M947.02 516.28L975.55 675.77" stroke="rgba(8, 202, 124, 1)" stroke-width="1.5"></path><path d="M947.02 516.28L1140.57 531.66" stroke="rgba(8, 202, 124, 1)" stroke-width="1.5"></path><path d="M947.02 516.28L1093.21 668.02" stroke="rgba(8, 202, 124, 1)" stroke-width="1.5"></path><path d="M975.55 675.77L975.55 675.77" stroke="rgba(8, 202, 124, 1)" stroke-width="1.5"></path><path d="M975.55 675.77L1093.21 668.02" stroke="rgba(8, 202, 124, 1)" stroke-width="1.5"></path><path d="M975.55 675.77L837.82 553.55" stroke="rgba(8, 202, 124, 1)" stroke-width="1.5"></path><path d="M975.55 675.77L1140.57 531.66" stroke="rgba(8, 202, 124, 1)" stroke-width="1.5"></path><path d="M975.55 675.77L1294.61 694.28" stroke="rgba(8, 202, 124, 1)" stroke-width="1.5"></path><path d="M1145.86 -95.24L1145.86 -95.24" stroke="rgba(8, 202, 124, 1)" stroke-width="1.5"></path><path d="M1145.86 -95.24L1285.85 -43.86" stroke="rgba(8, 202, 124, 1)" stroke-width="1.5"></path><path d="M1145.86 -95.24L1143.63 57.17" stroke="rgba(8, 202, 124, 1)" stroke-width="1.5"></path><path d="M1143.63 57.17L1143.63 57.17" stroke="rgba(8, 202, 124, 1)" stroke-width="1.5"></path><path d="M1143.63 57.17L1270.72 54.91" stroke="rgba(8, 202, 124, 1)" stroke-width="1.5"></path><path d="M1143.63 57.17L1110.06 192.12" stroke="rgba(8, 202, 124, 1)" stroke-width="1.5"></path><path d="M1110.06 192.12L1110.06 192.12" stroke="rgba(8, 202, 124, 1)" stroke-width="1.5"></path><path d="M1110.06 192.12L1142.32 365.09" stroke="rgba(8, 202, 124, 1)" stroke-width="1.5"></path><path d="M1142.32 365.09L1142.32 365.09" stroke="rgba(8, 202, 124, 1)" stroke-width="1.5"></path><path d="M1142.32 365.09L1263.6 340.63" stroke="rgba(8, 202, 124, 1)" stroke-width="1.5"></path><path d="M1142.32 365.09L1140.57 531.66" stroke="rgba(8, 202, 124, 1)" stroke-width="1.5"></path><path d="M1140.57 531.66L1140.57 531.66" stroke="rgba(8, 202, 124, 1)" stroke-width="1.5"></path><path d="M1140.57 531.66L1093.21 668.02" stroke="rgba(8, 202, 124, 1)" stroke-width="1.5"></path><path d="M1140.57 531.66L1298.87 524.46" stroke="rgba(8, 202, 124, 1)" stroke-width="1.5"></path><path d="M1093.21 668.02L1093.21 668.02" stroke="rgba(8, 202, 124, 1)" stroke-width="1.5"></path><path d="M1093.21 668.02L1294.61 694.28" stroke="rgba(8, 202, 124, 1)" stroke-width="1.5"></path><path d="M1093.21 668.02L1298.87 524.46" stroke="rgba(8, 202, 124, 1)" stroke-width="1.5"></path><path d="M1285.85 -43.86L1285.85 -43.86" stroke="rgba(8, 202, 124, 1)" stroke-width="1.5"></path><path d="M1285.85 -43.86L1270.72 54.91" stroke="rgba(8, 202, 124, 1)" stroke-width="1.5"></path><path d="M1285.85 -43.86L1441.98 -104.76" stroke="rgba(8, 202, 124, 1)" stroke-width="1.5"></path><path d="M1285.85 -43.86L1143.63 57.17" stroke="rgba(8, 202, 124, 1)" stroke-width="1.5"></path><path d="M1270.72 54.91L1270.72 54.91" stroke="rgba(8, 202, 124, 1)" stroke-width="1.5"></path><path d="M1270.72 54.91L1458.51 67.03" stroke="rgba(8, 202, 124, 1)" stroke-width="1.5"></path><path d="M1282.41 257.65L1282.41 257.65" stroke="rgba(8, 202, 124, 1)" stroke-width="1.5"></path><path d="M1282.41 257.65L1263.6 340.63" stroke="rgba(8, 202, 124, 1)" stroke-width="1.5"></path><path d="M1282.41 257.65L1142.32 365.09" stroke="rgba(8, 202, 124, 1)" stroke-width="1.5"></path><path d="M1263.6 340.63L1263.6 340.63" stroke="rgba(8, 202, 124, 1)" stroke-width="1.5"></path><path d="M1263.6 340.63L1416.3 382.05" stroke="rgba(8, 202, 124, 1)" stroke-width="1.5"></path><path d="M1263.6 340.63L1298.87 524.46" stroke="rgba(8, 202, 124, 1)" stroke-width="1.5"></path><path d="M1298.87 524.46L1298.87 524.46" stroke="rgba(8, 202, 124, 1)" stroke-width="1.5"></path><path d="M1298.87 524.46L1457.74 501.34" stroke="rgba(8, 202, 124, 1)" stroke-width="1.5"></path><path d="M1298.87 524.46L1294.61 694.28" stroke="rgba(8, 202, 124, 1)" stroke-width="1.5"></path><path d="M1298.87 524.46L1416.3 382.05" stroke="rgba(8, 202, 124, 1)" stroke-width="1.5"></path><path d="M1298.87 524.46L1450.11 653.77" stroke="rgba(8, 202, 124, 1)" stroke-width="1.5"></path><path d="M1294.61 694.28L1294.61 694.28" stroke="rgba(8, 202, 124, 1)" stroke-width="1.5"></path><path d="M1294.61 694.28L1450.11 653.77" stroke="rgba(8, 202, 124, 1)" stroke-width="1.5"></path><path d="M1441.98 -104.76L1441.98 -104.76" stroke="rgba(8, 202, 124, 1)" stroke-width="1.5"></path><path d="M1441.98 -104.76L1593.89 -100.5" stroke="rgba(8, 202, 124, 1)" stroke-width="1.5"></path><path d="M1441.98 -104.76L1458.51 67.03" stroke="rgba(8, 202, 124, 1)" stroke-width="1.5"></path><path d="M1441.98 -104.76L1543.19 76.81" stroke="rgba(8, 202, 124, 1)" stroke-width="1.5"></path><path d="M1441.98 -104.76L1270.72 54.91" stroke="rgba(8, 202, 124, 1)" stroke-width="1.5"></path><path d="M1441.98 -104.76L1145.86 -95.24" stroke="rgba(8, 202, 124, 1)" stroke-width="1.5"></path><path d="M1458.51 67.03L1458.51 67.03" stroke="rgba(8, 202, 124, 1)" stroke-width="1.5"></path><path d="M1458.51 67.03L1543.19 76.81" stroke="rgba(8, 202, 124, 1)" stroke-width="1.5"></path><path d="M1458.51 67.03L1460.81 256.33" stroke="rgba(8, 202, 124, 1)" stroke-width="1.5"></path><path d="M1460.81 256.33L1460.81 256.33" stroke="rgba(8, 202, 124, 1)" stroke-width="1.5"></path><path d="M1460.81 256.33L1543.23 251.11" stroke="rgba(8, 202, 124, 1)" stroke-width="1.5"></path><path d="M1460.81 256.33L1416.3 382.05" stroke="rgba(8, 202, 124, 1)" stroke-width="1.5"></path><path d="M1460.81 256.33L1282.41 257.65" stroke="rgba(8, 202, 124, 1)" stroke-width="1.5"></path><path d="M1460.81 256.33L1601.28 371.11" stroke="rgba(8, 202, 124, 1)" stroke-width="1.5"></path><path d="M1416.3 382.05L1416.3 382.05" stroke="rgba(8, 202, 124, 1)" stroke-width="1.5"></path><path d="M1416.3 382.05L1457.74 501.34" stroke="rgba(8, 202, 124, 1)" stroke-width="1.5"></path><path d="M1457.74 501.34L1457.74 501.34" stroke="rgba(8, 202, 124, 1)" stroke-width="1.5"></path><path d="M1457.74 501.34L1550 519.46" stroke="rgba(8, 202, 124, 1)" stroke-width="1.5"></path><path d="M1450.11 653.77L1450.11 653.77" stroke="rgba(8, 202, 124, 1)" stroke-width="1.5"></path><path d="M1450.11 653.77L1457.74 501.34" stroke="rgba(8, 202, 124, 1)" stroke-width="1.5"></path><path d="M1450.11 653.77L1608.11 703.98" stroke="rgba(8, 202, 124, 1)" stroke-width="1.5"></path><path d="M1593.89 -100.5L1593.89 -100.5" stroke="rgba(8, 202, 124, 1)" stroke-width="1.5"></path><path d="M1593.89 -100.5L1543.19 76.81" stroke="rgba(8, 202, 124, 1)" stroke-width="1.5"></path><path d="M1593.89 -100.5L1458.51 67.03" stroke="rgba(8, 202, 124, 1)" stroke-width="1.5"></path><path d="M1593.89 -100.5L1285.85 -43.86" stroke="rgba(8, 202, 124, 1)" stroke-width="1.5"></path><path d="M1593.89 -100.5L1543.23 251.11" stroke="rgba(8, 202, 124, 1)" stroke-width="1.5"></path><path d="M1543.19 76.81L1543.19 76.81" stroke="rgba(8, 202, 124, 1)" stroke-width="1.5"></path><path d="M1543.19 76.81L1543.23 251.11" stroke="rgba(8, 202, 124, 1)" stroke-width="1.5"></path><path d="M1543.23 251.11L1543.23 251.11" stroke="rgba(8, 202, 124, 1)" stroke-width="1.5"></path><path d="M1543.23 251.11L1601.28 371.11" stroke="rgba(8, 202, 124, 1)" stroke-width="1.5"></path><path d="M1601.28 371.11L1601.28 371.11" stroke="rgba(8, 202, 124, 1)" stroke-width="1.5"></path><path d="M1601.28 371.11L1550 519.46" stroke="rgba(8, 202, 124, 1)" stroke-width="1.5"></path><path d="M1601.28 371.11L1416.3 382.05" stroke="rgba(8, 202, 124, 1)" stroke-width="1.5"></path><path d="M1550 519.46L1550 519.46" stroke="rgba(8, 202, 124, 1)" stroke-width="1.5"></path><path d="M1550 519.46L1450.11 653.77" stroke="rgba(8, 202, 124, 1)" stroke-width="1.5"></path><path d="M1608.11 703.98L1608.11 703.98" stroke="rgba(8, 202, 124, 1)" stroke-width="1.5"></path><path d="M1608.11 703.98L1550 519.46" stroke="rgba(8, 202, 124, 1)" stroke-width="1.5"></path><path d="M1608.11 703.98L1457.74 501.34" stroke="rgba(8, 202, 124, 1)" stroke-width="1.5"></path><circle r="5" cx="-87.15" cy="376.47" fill="rgba(8, 202, 124, 1)"></circle><circle r="5" cx="-102.7" cy="527.48" fill="rgba(8, 202, 124, 1)"></circle><circle r="5" cx="71.18" cy="366.55" fill="rgba(8, 202, 124, 1)"></circle><circle r="5" cx="61.35" cy="546.13" fill="rgba(8, 202, 124, 1)"></circle><circle r="5" cx="76.93" cy="648.67" fill="rgba(8, 202, 124, 1)"></circle><circle r="5" cx="233.69" cy="348.47" fill="rgba(8, 202, 124, 1)"></circle><circle r="5" cx="258.74" cy="541.73" fill="rgba(8, 202, 124, 1)"></circle><circle r="5" cx="194.69" cy="710.01" fill="rgba(8, 202, 124, 1)"></circle><circle r="5" cx="400.35" cy="377.67" fill="rgba(8, 202, 124, 1)"></circle><circle r="5" cx="412.34" cy="504.84" fill="rgba(8, 202, 124, 1)"></circle><circle r="5" cx="404.2" cy="695.47" fill="rgba(8, 202, 124, 1)"></circle><circle r="5" cx="539.89" cy="498.02" fill="rgba(8, 202, 124, 1)"></circle><circle r="5" cx="500.9" cy="684.85" fill="rgba(8, 202, 124, 1)"></circle><circle r="5" cx="680.16" cy="363.28" fill="rgba(8, 202, 124, 1)"></circle><circle r="5" cx="651.24" cy="684.24" fill="rgba(8, 202, 124, 1)"></circle><circle r="5" cx="826.96" cy="241.34" fill="rgba(8, 202, 124, 1)"></circle><circle r="5" cx="837.82" cy="553.55" fill="rgba(8, 202, 124, 1)"></circle><circle r="5" cx="810.07" cy="702.7" fill="rgba(8, 202, 124, 1)"></circle><circle r="5" cx="965.38" cy="-99.99" fill="rgba(8, 202, 124, 1)"></circle><circle r="5" cx="959.71" cy="101.31" fill="rgba(8, 202, 124, 1)"></circle><circle r="5" cx="937.57" cy="240" fill="rgba(8, 202, 124, 1)"></circle><circle r="5" cx="947.02" cy="516.28" fill="rgba(8, 202, 124, 1)"></circle><circle r="5" cx="975.55" cy="675.77" fill="rgba(8, 202, 124, 1)"></circle><circle r="5" cx="1145.86" cy="-95.24" fill="rgba(8, 202, 124, 1)"></circle><circle r="5" cx="1143.63" cy="57.17" fill="rgba(8, 202, 124, 1)"></circle><circle r="5" cx="1110.06" cy="192.12" fill="rgba(8, 202, 124, 1)"></circle><circle r="5" cx="1142.32" cy="365.09" fill="rgba(8, 202, 124, 1)"></circle><circle r="5" cx="1140.57" cy="531.66" fill="rgba(8, 202, 124, 1)"></circle><circle r="5" cx="1093.21" cy="668.02" fill="rgba(8, 202, 124, 1)"></circle><circle r="5" cx="1285.85" cy="-43.86" fill="rgba(8, 202, 124, 1)"></circle><circle r="5" cx="1270.72" cy="54.91" fill="rgba(8, 202, 124, 1)"></circle><circle r="5" cx="1282.41" cy="257.65" fill="rgba(8, 202, 124, 1)"></circle><circle r="5" cx="1263.6" cy="340.63" fill="rgba(8, 202, 124, 1)"></circle><circle r="5" cx="1298.87" cy="524.46" fill="rgba(8, 202, 124, 1)"></circle><circle r="5" cx="1294.61" cy="694.28" fill="rgba(8, 202, 124, 1)"></circle><circle r="5" cx="1441.98" cy="-104.76" fill="rgba(8, 202, 124, 1)"></circle><circle r="5" cx="1458.51" cy="67.03" fill="rgba(8, 202, 124, 1)"></circle><circle r="5" cx="1460.81" cy="256.33" fill="rgba(8, 202, 124, 1)"></circle><circle r="5" cx="1416.3" cy="382.05" fill="rgba(8, 202, 124, 1)"></circle><circle r="5" cx="1457.74" cy="501.34" fill="rgba(8, 202, 124, 1)"></circle><circle r="5" cx="1450.11" cy="653.77" fill="rgba(8, 202, 124, 1)"></circle><circle r="5" cx="1593.89" cy="-100.5" fill="rgba(8, 202, 124, 1)"></circle><circle r="5" cx="1543.19" cy="76.81" fill="rgba(8, 202, 124, 1)"></circle><circle r="5" cx="1543.23" cy="251.11" fill="rgba(8, 202, 124, 1)"></circle><circle r="5" cx="1601.28" cy="371.11" fill="rgba(8, 202, 124, 1)"></circle><circle r="5" cx="1550" cy="519.46" fill="rgba(8, 202, 124, 1)"></circle><circle r="5" cx="1608.11" cy="703.98" fill="rgba(8, 202, 124, 1)"></circle><path d="M-51.68 551.6L-51.68 551.6" stroke="hsl(172.10000000000002, 44.4%, 56.8%)" stroke-width="1.5"></path><path d="M-51.68 551.6L-108.51 642.81" stroke="hsl(172.10000000000002, 44.4%, 56.8%)" stroke-width="1.5"></path><path d="M-51.68 551.6L64.42 561.58" stroke="hsl(172.10000000000002, 44.4%, 56.8%)" stroke-width="1.5"></path><path d="M-51.68 551.6L79.68 661.68" stroke="hsl(172.10000000000002, 44.4%, 56.8%)" stroke-width="1.5"></path><path d="M-51.68 551.6L208.76 530.71" stroke="hsl(172.10000000000002, 44.4%, 56.8%)" stroke-width="1.5"></path><path d="M-51.68 551.6L230.3 661.79" stroke="hsl(172.10000000000002, 44.4%, 56.8%)" stroke-width="1.5"></path><path d="M208.76 530.71L208.76 530.71" stroke="hsl(172.10000000000002, 44.4%, 56.8%)" stroke-width="1.5"></path><path d="M208.76 530.71L230.3 661.79" stroke="hsl(172.10000000000002, 44.4%, 56.8%)" stroke-width="1.5"></path><path d="M208.76 530.71L64.42 561.58" stroke="hsl(172.10000000000002, 44.4%, 56.8%)" stroke-width="1.5"></path><path d="M208.76 530.71L389.65 524.67" stroke="hsl(172.10000000000002, 44.4%, 56.8%)" stroke-width="1.5"></path><path d="M208.76 530.71L79.68 661.68" stroke="hsl(172.10000000000002, 44.4%, 56.8%)" stroke-width="1.5"></path><path d="M208.76 530.71L346.76 693.66" stroke="hsl(172.10000000000002, 44.4%, 56.8%)" stroke-width="1.5"></path><path d="M489.34 704.2L489.34 704.2" stroke="hsl(172.10000000000002, 44.4%, 56.8%)" stroke-width="1.5"></path><path d="M489.34 704.2L346.76 693.66" stroke="hsl(172.10000000000002, 44.4%, 56.8%)" stroke-width="1.5"></path><path d="M489.34 704.2L537.1 514.31" stroke="hsl(172.10000000000002, 44.4%, 56.8%)" stroke-width="1.5"></path><path d="M1153.26 410.09L1153.26 410.09" stroke="hsl(172.10000000000002, 44.4%, 56.8%)" stroke-width="1.5"></path><path d="M1153.26 410.09L1136.41 507.03" stroke="hsl(172.10000000000002, 44.4%, 56.8%)" stroke-width="1.5"></path><path d="M1153.26 410.09L1307.64 339.88" stroke="hsl(172.10000000000002, 44.4%, 56.8%)" stroke-width="1.5"></path><path d="M1153.26 410.09L953.75 389.25" stroke="hsl(172.10000000000002, 44.4%, 56.8%)" stroke-width="1.5"></path><path d="M1153.26 410.09L977.64 532.77" stroke="hsl(172.10000000000002, 44.4%, 56.8%)" stroke-width="1.5"></path><path d="M1153.26 410.09L1095.12 198.63" stroke="hsl(172.10000000000002, 44.4%, 56.8%)" stroke-width="1.5"></path><path d="M1153.26 410.09L1299.25 216.35" stroke="hsl(172.10000000000002, 44.4%, 56.8%)" stroke-width="1.5"></path><path d="M1136.41 507.03L1136.41 507.03" stroke="hsl(172.10000000000002, 44.4%, 56.8%)" stroke-width="1.5"></path><path d="M1136.41 507.03L977.64 532.77" stroke="hsl(172.10000000000002, 44.4%, 56.8%)" stroke-width="1.5"></path><path d="M1136.41 507.03L1122.57 678.26" stroke="hsl(172.10000000000002, 44.4%, 56.8%)" stroke-width="1.5"></path><path d="M1136.41 507.03L953.75 389.25" stroke="hsl(172.10000000000002, 44.4%, 56.8%)" stroke-width="1.5"></path><path d="M1293.16 82.73L1293.16 82.73" stroke="hsl(172.10000000000002, 44.4%, 56.8%)" stroke-width="1.5"></path><path d="M1293.16 82.73L1299.25 216.35" stroke="hsl(172.10000000000002, 44.4%, 56.8%)" stroke-width="1.5"></path><path d="M1293.16 82.73L1430.89 90.17" stroke="hsl(172.10000000000002, 44.4%, 56.8%)" stroke-width="1.5"></path><path d="M1293.16 82.73L1247.81 -65.84" stroke="hsl(172.10000000000002, 44.4%, 56.8%)" stroke-width="1.5"></path><path d="M1547.56 -53.38L1547.56 -53.38" stroke="hsl(172.10000000000002, 44.4%, 56.8%)" stroke-width="1.5"></path><path d="M1547.56 -53.38L1430.16 -98.79" stroke="hsl(172.10000000000002, 44.4%, 56.8%)" stroke-width="1.5"></path><path d="M1547.56 -53.38L1549.99 73.11" stroke="hsl(172.10000000000002, 44.4%, 56.8%)" stroke-width="1.5"></path><path d="M1547.56 -53.38L1430.89 90.17" stroke="hsl(172.10000000000002, 44.4%, 56.8%)" stroke-width="1.5"></path><path d="M1547.56 -53.38L1458.87 201.23" stroke="hsl(172.10000000000002, 44.4%, 56.8%)" stroke-width="1.5"></path><path d="M1547.56 -53.38L1293.16 82.73" stroke="hsl(172.10000000000002, 44.4%, 56.8%)" stroke-width="1.5"></path><path d="M1547.56 -53.38L1247.81 -65.84" stroke="hsl(172.10000000000002, 44.4%, 56.8%)" stroke-width="1.5"></path><path d="M-108.51 642.81L-108.51 642.81" stroke="hsl(172.10000000000002, 44.4%, 56.8%)" stroke-width="1.5"></path><path d="M-108.51 642.81L79.68 661.68" stroke="hsl(172.10000000000002, 44.4%, 56.8%)" stroke-width="1.5"></path><path d="M-108.51 642.81L64.42 561.58" stroke="hsl(172.10000000000002, 44.4%, 56.8%)" stroke-width="1.5"></path><path d="M-108.51 642.81L208.76 530.71" stroke="hsl(172.10000000000002, 44.4%, 56.8%)" stroke-width="1.5"></path><path d="M-108.51 642.81L230.3 661.79" stroke="hsl(172.10000000000002, 44.4%, 56.8%)" stroke-width="1.5"></path><path d="M-108.51 642.81L346.76 693.66" stroke="hsl(172.10000000000002, 44.4%, 56.8%)" stroke-width="1.5"></path><path d="M64.42 561.58L64.42 561.58" stroke="hsl(172.10000000000002, 44.4%, 56.8%)" stroke-width="1.5"></path><path d="M64.42 561.58L79.68 661.68" stroke="hsl(172.10000000000002, 44.4%, 56.8%)" stroke-width="1.5"></path><path d="M64.42 561.58L230.3 661.79" stroke="hsl(172.10000000000002, 44.4%, 56.8%)" stroke-width="1.5"></path><path d="M64.42 561.58L346.76 693.66" stroke="hsl(172.10000000000002, 44.4%, 56.8%)" stroke-width="1.5"></path><path d="M79.68 661.68L79.68 661.68" stroke="hsl(172.10000000000002, 44.4%, 56.8%)" stroke-width="1.5"></path><path d="M79.68 661.68L230.3 661.79" stroke="hsl(172.10000000000002, 44.4%, 56.8%)" stroke-width="1.5"></path><path d="M230.3 661.79L230.3 661.79" stroke="hsl(172.10000000000002, 44.4%, 56.8%)" stroke-width="1.5"></path><path d="M230.3 661.79L346.76 693.66" stroke="hsl(172.10000000000002, 44.4%, 56.8%)" stroke-width="1.5"></path><path d="M389.65 524.67L389.65 524.67" stroke="hsl(172.10000000000002, 44.4%, 56.8%)" stroke-width="1.5"></path><path d="M389.65 524.67L537.1 514.31" stroke="hsl(172.10000000000002, 44.4%, 56.8%)" stroke-width="1.5"></path><path d="M389.65 524.67L346.76 693.66" stroke="hsl(172.10000000000002, 44.4%, 56.8%)" stroke-width="1.5"></path><path d="M389.65 524.67L489.34 704.2" stroke="hsl(172.10000000000002, 44.4%, 56.8%)" stroke-width="1.5"></path><path d="M389.65 524.67L230.3 661.79" stroke="hsl(172.10000000000002, 44.4%, 56.8%)" stroke-width="1.5"></path><path d="M389.65 524.67L694.09 502.52" stroke="hsl(172.10000000000002, 44.4%, 56.8%)" stroke-width="1.5"></path><path d="M346.76 693.66L346.76 693.66" stroke="hsl(172.10000000000002, 44.4%, 56.8%)" stroke-width="1.5"></path><path d="M537.1 514.31L537.1 514.31" stroke="hsl(172.10000000000002, 44.4%, 56.8%)" stroke-width="1.5"></path><path d="M537.1 514.31L694.09 502.52" stroke="hsl(172.10000000000002, 44.4%, 56.8%)" stroke-width="1.5"></path><path d="M537.1 514.31L711.97 664.63" stroke="hsl(172.10000000000002, 44.4%, 56.8%)" stroke-width="1.5"></path><path d="M694.09 502.52L694.09 502.52" stroke="hsl(172.10000000000002, 44.4%, 56.8%)" stroke-width="1.5"></path><path d="M694.09 502.52L818.11 544.94" stroke="hsl(172.10000000000002, 44.4%, 56.8%)" stroke-width="1.5"></path><path d="M694.09 502.52L711.97 664.63" stroke="hsl(172.10000000000002, 44.4%, 56.8%)" stroke-width="1.5"></path><path d="M694.09 502.52L804 350.09" stroke="hsl(172.10000000000002, 44.4%, 56.8%)" stroke-width="1.5"></path><path d="M711.97 664.63L711.97 664.63" stroke="hsl(172.10000000000002, 44.4%, 56.8%)" stroke-width="1.5"></path><path d="M711.97 664.63L843.39 669.15" stroke="hsl(172.10000000000002, 44.4%, 56.8%)" stroke-width="1.5"></path><path d="M711.97 664.63L818.11 544.94" stroke="hsl(172.10000000000002, 44.4%, 56.8%)" stroke-width="1.5"></path><path d="M804 350.09L804 350.09" stroke="hsl(172.10000000000002, 44.4%, 56.8%)" stroke-width="1.5"></path><path d="M804 350.09L953.75 389.25" stroke="hsl(172.10000000000002, 44.4%, 56.8%)" stroke-width="1.5"></path><path d="M804 350.09L818.11 544.94" stroke="hsl(172.10000000000002, 44.4%, 56.8%)" stroke-width="1.5"></path><path d="M818.11 544.94L818.11 544.94" stroke="hsl(172.10000000000002, 44.4%, 56.8%)" stroke-width="1.5"></path><path d="M818.11 544.94L843.39 669.15" stroke="hsl(172.10000000000002, 44.4%, 56.8%)" stroke-width="1.5"></path><path d="M843.39 669.15L843.39 669.15" stroke="hsl(172.10000000000002, 44.4%, 56.8%)" stroke-width="1.5"></path><path d="M843.39 669.15L977.64 532.77" stroke="hsl(172.10000000000002, 44.4%, 56.8%)" stroke-width="1.5"></path><path d="M953.75 389.25L953.75 389.25" stroke="hsl(172.10000000000002, 44.4%, 56.8%)" stroke-width="1.5"></path><path d="M953.75 389.25L977.64 532.77" stroke="hsl(172.10000000000002, 44.4%, 56.8%)" stroke-width="1.5"></path><path d="M953.75 389.25L818.11 544.94" stroke="hsl(172.10000000000002, 44.4%, 56.8%)" stroke-width="1.5"></path><path d="M977.64 532.77L977.64 532.77" stroke="hsl(172.10000000000002, 44.4%, 56.8%)" stroke-width="1.5"></path><path d="M977.64 532.77L818.11 544.94" stroke="hsl(172.10000000000002, 44.4%, 56.8%)" stroke-width="1.5"></path><path d="M977.64 532.77L1122.57 678.26" stroke="hsl(172.10000000000002, 44.4%, 56.8%)" stroke-width="1.5"></path><path d="M1095.12 198.63L1095.12 198.63" stroke="hsl(172.10000000000002, 44.4%, 56.8%)" stroke-width="1.5"></path><path d="M1095.12 198.63L1299.25 216.35" stroke="hsl(172.10000000000002, 44.4%, 56.8%)" stroke-width="1.5"></path><path d="M1122.57 678.26L1122.57 678.26" stroke="hsl(172.10000000000002, 44.4%, 56.8%)" stroke-width="1.5"></path><path d="M1122.57 678.26L1277.81 701.94" stroke="hsl(172.10000000000002, 44.4%, 56.8%)" stroke-width="1.5"></path><path d="M1247.81 -65.84L1247.81 -65.84" stroke="hsl(172.10000000000002, 44.4%, 56.8%)" stroke-width="1.5"></path><path d="M1247.81 -65.84L1430.16 -98.79" stroke="hsl(172.10000000000002, 44.4%, 56.8%)" stroke-width="1.5"></path><path d="M1247.81 -65.84L1430.89 90.17" stroke="hsl(172.10000000000002, 44.4%, 56.8%)" stroke-width="1.5"></path><path d="M1247.81 -65.84L1299.25 216.35" stroke="hsl(172.10000000000002, 44.4%, 56.8%)" stroke-width="1.5"></path><path d="M1247.81 -65.84L1095.12 198.63" stroke="hsl(172.10000000000002, 44.4%, 56.8%)" stroke-width="1.5"></path><path d="M1299.25 216.35L1299.25 216.35" stroke="hsl(172.10000000000002, 44.4%, 56.8%)" stroke-width="1.5"></path><path d="M1299.25 216.35L1307.64 339.88" stroke="hsl(172.10000000000002, 44.4%, 56.8%)" stroke-width="1.5"></path><path d="M1299.25 216.35L1458.87 201.23" stroke="hsl(172.10000000000002, 44.4%, 56.8%)" stroke-width="1.5"></path><path d="M1299.25 216.35L1430.89 90.17" stroke="hsl(172.10000000000002, 44.4%, 56.8%)" stroke-width="1.5"></path><path d="M1299.25 216.35L1411.25 393.37" stroke="hsl(172.10000000000002, 44.4%, 56.8%)" stroke-width="1.5"></path><path d="M1307.64 339.88L1307.64 339.88" stroke="hsl(172.10000000000002, 44.4%, 56.8%)" stroke-width="1.5"></path><path d="M1307.64 339.88L1411.25 393.37" stroke="hsl(172.10000000000002, 44.4%, 56.8%)" stroke-width="1.5"></path><path d="M1307.64 339.88L1394.46 489.5" stroke="hsl(172.10000000000002, 44.4%, 56.8%)" stroke-width="1.5"></path><path d="M1307.64 339.88L1458.87 201.23" stroke="hsl(172.10000000000002, 44.4%, 56.8%)" stroke-width="1.5"></path><path d="M1277.81 701.94L1277.81 701.94" stroke="hsl(172.10000000000002, 44.4%, 56.8%)" stroke-width="1.5"></path><path d="M1277.81 701.94L1396.37 681.79" stroke="hsl(172.10000000000002, 44.4%, 56.8%)" stroke-width="1.5"></path><path d="M1277.81 701.94L1136.41 507.03" stroke="hsl(172.10000000000002, 44.4%, 56.8%)" stroke-width="1.5"></path><path d="M1430.16 -98.79L1430.16 -98.79" stroke="hsl(172.10000000000002, 44.4%, 56.8%)" stroke-width="1.5"></path><path d="M1430.16 -98.79L1430.89 90.17" stroke="hsl(172.10000000000002, 44.4%, 56.8%)" stroke-width="1.5"></path><path d="M1430.89 90.17L1430.89 90.17" stroke="hsl(172.10000000000002, 44.4%, 56.8%)" stroke-width="1.5"></path><path d="M1430.89 90.17L1458.87 201.23" stroke="hsl(172.10000000000002, 44.4%, 56.8%)" stroke-width="1.5"></path><path d="M1430.89 90.17L1549.99 73.11" stroke="hsl(172.10000000000002, 44.4%, 56.8%)" stroke-width="1.5"></path><path d="M1458.87 201.23L1458.87 201.23" stroke="hsl(172.10000000000002, 44.4%, 56.8%)" stroke-width="1.5"></path><path d="M1458.87 201.23L1549.99 73.11" stroke="hsl(172.10000000000002, 44.4%, 56.8%)" stroke-width="1.5"></path><path d="M1458.87 201.23L1411.25 393.37" stroke="hsl(172.10000000000002, 44.4%, 56.8%)" stroke-width="1.5"></path><path d="M1458.87 201.23L1602.61 343.25" stroke="hsl(172.10000000000002, 44.4%, 56.8%)" stroke-width="1.5"></path><path d="M1411.25 393.37L1411.25 393.37" stroke="hsl(172.10000000000002, 44.4%, 56.8%)" stroke-width="1.5"></path><path d="M1411.25 393.37L1394.46 489.5" stroke="hsl(172.10000000000002, 44.4%, 56.8%)" stroke-width="1.5"></path><path d="M1411.25 393.37L1579.93 489.65" stroke="hsl(172.10000000000002, 44.4%, 56.8%)" stroke-width="1.5"></path><path d="M1411.25 393.37L1602.61 343.25" stroke="hsl(172.10000000000002, 44.4%, 56.8%)" stroke-width="1.5"></path><path d="M1394.46 489.5L1394.46 489.5" stroke="hsl(172.10000000000002, 44.4%, 56.8%)" stroke-width="1.5"></path><path d="M1394.46 489.5L1579.93 489.65" stroke="hsl(172.10000000000002, 44.4%, 56.8%)" stroke-width="1.5"></path><path d="M1394.46 489.5L1396.37 681.79" stroke="hsl(172.10000000000002, 44.4%, 56.8%)" stroke-width="1.5"></path><path d="M1394.46 489.5L1560.48 642.49" stroke="hsl(172.10000000000002, 44.4%, 56.8%)" stroke-width="1.5"></path><path d="M1396.37 681.79L1396.37 681.79" stroke="hsl(172.10000000000002, 44.4%, 56.8%)" stroke-width="1.5"></path><path d="M1396.37 681.79L1560.48 642.49" stroke="hsl(172.10000000000002, 44.4%, 56.8%)" stroke-width="1.5"></path><path d="M1549.99 73.11L1549.99 73.11" stroke="hsl(172.10000000000002, 44.4%, 56.8%)" stroke-width="1.5"></path><path d="M1549.99 73.11L1430.16 -98.79" stroke="hsl(172.10000000000002, 44.4%, 56.8%)" stroke-width="1.5"></path><path d="M1549.99 73.11L1293.16 82.73" stroke="hsl(172.10000000000002, 44.4%, 56.8%)" stroke-width="1.5"></path><path d="M1549.99 73.11L1602.61 343.25" stroke="hsl(172.10000000000002, 44.4%, 56.8%)" stroke-width="1.5"></path><path d="M1602.61 343.25L1602.61 343.25" stroke="hsl(172.10000000000002, 44.4%, 56.8%)" stroke-width="1.5"></path><path d="M1602.61 343.25L1579.93 489.65" stroke="hsl(172.10000000000002, 44.4%, 56.8%)" stroke-width="1.5"></path><path d="M1579.93 489.65L1579.93 489.65" stroke="hsl(172.10000000000002, 44.4%, 56.8%)" stroke-width="1.5"></path><path d="M1579.93 489.65L1560.48 642.49" stroke="hsl(172.10000000000002, 44.4%, 56.8%)" stroke-width="1.5"></path><path d="M1560.48 642.49L1560.48 642.49" stroke="hsl(172.10000000000002, 44.4%, 56.8%)" stroke-width="1.5"></path><circle r="25" cx="-51.68" cy="551.6" fill="url(#SvgjsRadialGradient1176)"></circle><circle r="25" cx="208.76" cy="530.71" fill="url(#SvgjsRadialGradient1176)"></circle><circle r="25" cx="489.34" cy="704.2" fill="url(#SvgjsRadialGradient1176)"></circle><circle r="25" cx="1153.26" cy="410.09" fill="url(#SvgjsRadialGradient1176)"></circle><circle r="25" cx="1136.41" cy="507.03" fill="url(#SvgjsRadialGradient1176)"></circle><circle r="25" cx="1293.16" cy="82.73" fill="url(#SvgjsRadialGradient1176)"></circle><circle r="25" cx="1547.56" cy="-53.38" fill="url(#SvgjsRadialGradient1176)"></circle><circle r="5" cx="-108.51" cy="642.81" fill="#9fd0ca"></circle><circle r="5" cx="64.42" cy="561.58" fill="#9fd0ca"></circle><circle r="5" cx="79.68" cy="661.68" fill="#9fd0ca"></circle><circle r="5" cx="230.3" cy="661.79" fill="#9fd0ca"></circle><circle r="5" cx="389.65" cy="524.67" fill="#9fd0ca"></circle><circle r="5" cx="346.76" cy="693.66" fill="#9fd0ca"></circle><circle r="5" cx="537.1" cy="514.31" fill="#9fd0ca"></circle><circle r="5" cx="694.09" cy="502.52" fill="#9fd0ca"></circle><circle r="5" cx="711.97" cy="664.63" fill="#9fd0ca"></circle><circle r="5" cx="804" cy="350.09" fill="#9fd0ca"></circle><circle r="5" cx="818.11" cy="544.94" fill="#9fd0ca"></circle><circle r="5" cx="843.39" cy="669.15" fill="#9fd0ca"></circle><circle r="5" cx="953.75" cy="389.25" fill="#9fd0ca"></circle><circle r="5" cx="977.64" cy="532.77" fill="#9fd0ca"></circle><circle r="5" cx="1095.12" cy="198.63" fill="#9fd0ca"></circle><circle r="5" cx="1122.57" cy="678.26" fill="#9fd0ca"></circle><circle r="5" cx="1247.81" cy="-65.84" fill="#9fd0ca"></circle><circle r="5" cx="1299.25" cy="216.35" fill="#9fd0ca"></circle><circle r="5" cx="1307.64" cy="339.88" fill="#9fd0ca"></circle><circle r="5" cx="1277.81" cy="701.94" fill="#9fd0ca"></circle><circle r="5" cx="1430.16" cy="-98.79" fill="#9fd0ca"></circle><circle r="5" cx="1430.89" cy="90.17" fill="#9fd0ca"></circle><circle r="5" cx="1458.87" cy="201.23" fill="#9fd0ca"></circle><circle r="5" cx="1411.25" cy="393.37" fill="#9fd0ca"></circle><circle r="5" cx="1394.46" cy="489.5" fill="#9fd0ca"></circle><circle r="5" cx="1396.37" cy="681.79" fill="#9fd0ca"></circle><circle r="5" cx="1549.99" cy="73.11" fill="#9fd0ca"></circle><circle r="5" cx="1602.61" cy="343.25" fill="#9fd0ca"></circle><circle r="5" cx="1579.93" cy="489.65" fill="#9fd0ca"></circle><circle r="5" cx="1560.48" cy="642.49" fill="#9fd0ca"></circle></g><defs><mask id="SvgjsMask1174"><rect width="1440" height="560" fill="#ffffff"></rect></mask><linearGradient x1="15.28%" y1="-39.29%" x2="84.72%" y2="139.29%" gradientUnits="userSpaceOnUse" id="SvgjsLinearGradient1175"><stop stop-color="#0e2a47" offset="0"></stop><stop stop-color="rgba(11, 158, 0, 0.65)" offset="1"></stop></linearGradient><radialGradient id="SvgjsRadialGradient1176"><stop stop-color="#ffffff" offset="0.1"></stop><stop stop-color="rgba(62, 161, 148, 1)" offset="0.2"></stop><stop stop-color="rgba(62, 161, 148, 0)" offset="1"></stop></radialGradient></defs></svg>